<svg id="Layer_1" data-name="Layer 1" xmlns="http://www.w3.org/2000/svg" viewBox="0 0 46.68 53.91"><defs><style>.cls-1{fill:#fff;}</style></defs><title>Nav-Arrow-Left</title><polygon class="cls-1" points="1 26.95 26.18 12.41 26.18 16.04 7.29 26.95 26.18 37.86 26.18 41.49 1 26.95"/><path d="M45.68,23.35v2.47l-1.19.7-16.7,9.64-1.5.86,1.5.87,16.7,9.64,1.19.69V50.7l-1.84-1.07L22,37,43.84,24.41l1.84-1.06m1-1.73-3.34,1.93L20,37,43.34,50.5l3.34,1.93V47.64l-1.69-1L28.29,37,45,27.38l1.69-1V21.62Z" transform="translate(-20 -10.07)"/><polygon class="cls-1" points="31.18 44.38 31.18 40.75 42.18 47.1 42.18 6.81 31.18 13.16 31.18 9.53 46.18 0.87 46.18 53.04 31.18 44.38"/><path d="M65.68,11.8V62.24l-14-8.08V51.69l9.5,5.48,1.5.87V16l-1.5.87-9.5,5.48V19.89l14-8.09m1-1.73-16,9.24v4.78l11-6.35V56.3L50.68,50v4.79l16,9.24V10.07Z" transform="translate(-20 -10.07)"/></svg>