<svg id="Layer_1" data-name="Layer 1" xmlns="http://www.w3.org/2000/svg" viewBox="0 0 46.68 53.91"><defs><style>.cls-1{fill:#fff;}</style></defs><title>Nav-Arrow-Right</title><polygon class="cls-1" points="20.5 37.86 39.4 26.95 20.5 16.04 20.5 12.41 45.68 26.95 20.5 41.49 20.5 37.86"/><path d="M41,23.35l1.84,1.06L64.68,37,42.84,49.63,41,50.7V48.22l1.2-.69,16.7-9.64L60.4,37l-1.5-.86L42.2,26.52l-1.2-.7V23.35m-1-1.73V26.4l1.7,1L58.4,37,41.7,46.66l-1.7,1v4.79l3.34-1.93L66.68,37,43.34,23.55,40,21.62Z" transform="translate(-20 -10.07)"/><polygon class="cls-1" points="0.5 0.87 15.5 9.53 15.5 13.16 4.5 6.81 4.5 47.1 15.5 40.75 15.5 44.38 0.5 53.04 0.5 0.87"/><path d="M21,11.8l14,8.09v2.47l-9.5-5.48L24,16V58l1.5-.87L35,51.69v2.47L21,62.24V11.8m-1-1.73V64l16-9.24V50L25,56.3V17.74l11,6.35V19.31L20,10.07Z" transform="translate(-20 -10.07)"/></svg>